<?xml version="1.0" encoding="utf-8"?>
<!-- Generator: Adobe Illustrator 26.0.1, SVG Export Plug-In . SVG Version: 6.00 Build 0)  -->
<svg version="1.1" id="Layer_1" xmlns="http://www.w3.org/2000/svg" xmlns:xlink="http://www.w3.org/1999/xlink" x="0px" y="0px"
	 viewBox="0 0 180 93" style="enable-background:new 0 0 180 93;" xml:space="preserve">
<style type="text/css">
	.st0{fill:#FFFFFF;}
	.st1{fill-rule:evenodd;clip-rule:evenodd;fill:#FFFFFF;}
</style>
<g>
	<path class="st0" d="M56.6,26.8V11.7h-3.3V9.2h3.3V7c0-2.1,0.5-3.7,1.6-4.8c1.1-1.1,2.5-1.6,4.4-1.6c1.1,0,2.1,0.1,2.9,0.4v2.5
		c-0.4-0.1-0.9-0.2-1.3-0.3c-0.4,0-0.8-0.1-1.2-0.1c-2.4,0-3.6,1.2-3.6,3.7v2.4h6v2.4h-6v15.2H56.6z"/>
	<path class="st0" d="M69.3,26.8V9.2h2.8v3.1c0.6-1.1,1.3-2,2.1-2.6c0.9-0.6,1.9-0.9,3-0.9c0.5,0,1,0.1,1.6,0.2v2.8
		c-0.3,0-0.6-0.1-0.9-0.1c-0.3,0-0.6,0-0.9,0c-1.3,0-2.3,0.4-3.1,1.2c-0.8,0.8-1.4,1.8-1.8,3.1v10.8H69.3z"/>
	<path class="st0" d="M89.7,27.2c-1.8,0-3.3-0.4-4.6-1.2c-1.3-0.8-2.3-1.9-3-3.3c-0.7-1.4-1.1-3-1.1-4.7c0-1.8,0.4-3.4,1.1-4.8
		c0.7-1.3,1.7-2.5,3-3.3c1.3-0.8,2.8-1.2,4.6-1.2H90c1.8,0,3.3,0.4,4.6,1.2c1.3,0.8,2.3,1.9,3,3.3c0.7,1.4,1.1,3,1.1,4.8
		c0,1.8-0.4,3.4-1.1,4.7c-0.7,1.3-1.7,2.5-3,3.3c-1.3,0.8-2.8,1.2-4.6,1.2H89.7z M89.7,24.6H90c1.8,0,3.1-0.6,4.2-1.8
		c1-1.2,1.5-2.8,1.5-4.8c0-2-0.5-3.6-1.5-4.8c-1-1.2-2.4-1.8-4.2-1.8h-0.3c-1.8,0-3.1,0.6-4.2,1.8C84.5,14.4,84,16,84,18
		c0,2,0.5,3.6,1.5,4.8C86.6,24,87.9,24.6,89.7,24.6L89.7,24.6z"/>
	<path class="st0" d="M102.7,26.8V9.2h2.8v3.3c0.6-1.1,1.4-2,2.4-2.7c1-0.7,2.1-1,3.4-1h0.4c2.9,0,4.8,1.4,5.6,4.2
		c0.7-1.3,1.5-2.3,2.6-3.1c1.1-0.8,2.3-1.1,3.7-1.1h0.4c2,0,3.5,0.7,4.5,2c1,1.3,1.6,3.2,1.6,5.7v10.3h-2.8v-9.9
		c0-3.7-1.3-5.5-4-5.5h-0.3c-1.3,0-2.3,0.4-3.3,1.3c-0.9,0.8-1.6,1.9-2,3.2v10.9H115v-9.9c0-3.7-1.3-5.5-4-5.5h-0.3
		c-1.3,0-2.3,0.4-3.2,1.3c-0.9,0.8-1.6,1.9-2,3.2v10.9H102.7z"/>
	<path class="st1" d="M28,63.8c3.2-4.3,6.7-7.7,11.1-7.7c8.5,0,15.4,10.8,15.4,23.6c0,7.8-3.4,12.7-9.4,12.7c-5.3,0-8.2-3-13.4-11.7
		l-2.7-4.5c-0.6-1.1-1.2-2.1-1.8-3c-1.6,2.9-4,7.1-4,7.1c-5.7,10-8.9,12.1-13.4,12.1C3.7,92.4,0,87.6,0,79.9
		c0-12.2,6.8-23.8,15.7-23.8C20,56.2,23.7,58.3,28,63.8z M10.1,86.5c2.6,0,4.2-1.6,8.8-8.9c0,0,2.1-3.3,5.6-8.7
		c-3.7-5.2-6-6.9-8.9-6.9c-5.3,0-9.7,9.1-9.7,18C5.9,84.2,7.5,86.5,10.1,86.5z M36.4,76.7l-3.2-5.3c-0.9-1.4-1.7-2.7-2.5-3.9
		c2.9-4.5,5.3-6.7,8.1-6.7c5.9,0,10.6,8.7,10.6,19.3c0,4.1-1.3,6.4-4.1,6.4C42.7,86.5,41.4,84.8,36.4,76.7z M66.1,57.3h6.8l11.6,21
		l11.6-21h6.7v34.5h-5.6V65.4L87,83.7h-5.2L71.6,65.4v26.4h-5.6V57.3z M113.9,90.7c2,1.1,4.2,1.7,6.8,1.7c4.3,0,7.9-1.3,10.8-4
		l-3-3.6c-1.1,1-2.2,1.7-3.4,2.2c-1.2,0.5-2.6,0.7-4.3,0.7c-2.1,0-3.8-0.6-5.1-1.8c-1.4-1.2-2.2-2.9-2.5-5h18.9v-1.5
		c0-2.8-0.5-5.3-1.4-7.3c-1-2.1-2.3-3.7-4.1-4.9c-1.8-1.2-3.9-1.7-6.3-1.7c-2.5,0-4.6,0.6-6.5,1.7c-1.9,1.1-3.4,2.7-4.4,4.8
		c-1.1,2-1.6,4.4-1.6,7c0,2.6,0.5,4.9,1.6,6.9C110.4,87.9,112,89.6,113.9,90.7z M120.2,70.2c1.9,0,3.4,0.6,4.6,1.8
		c1.2,1.2,1.8,2.8,2,4.9h-13.5c0.3-2.1,1.1-3.7,2.4-4.9C116.8,70.8,118.4,70.2,120.2,70.2z M133.7,70.7h5.1v12.2
		c0,6.3,2.9,9.5,8.7,9.5c0.8,0,1.6-0.1,2.4-0.2c0.7-0.1,1.4-0.2,2.1-0.4v-4.5c-0.6,0.1-1.1,0.2-1.6,0.2c-0.6,0.1-1.2,0.1-1.8,0.1
		c-1.6,0-2.7-0.4-3.4-1.2c-0.7-0.8-1-2.2-1-4.1V70.7h7.8v-4.6h-7.8v-7.5h-5.4v7.5h-5.1V70.7z M174.7,91.8h5.3V66.1h-5.3v3.3
		c-0.9-1.2-2.1-2.2-3.5-2.9c-1.4-0.7-3-1-4.7-1c-2.3,0-4.4,0.6-6.2,1.7c-1.8,1.1-3.2,2.7-4.2,4.8c-1,2-1.5,4.3-1.5,7
		c0,2.6,0.5,4.9,1.5,7c1,2,2.4,3.6,4.1,4.8c1.7,1.2,3.8,1.7,6,1.7c1.8,0,3.5-0.4,4.9-1.1c1.4-0.7,2.7-1.8,3.6-3.1V91.8z M171.9,71.6
		c1.2,0.8,2.1,2,2.7,3.5v7.7c-0.6,1.4-1.5,2.6-2.8,3.4c-1.3,0.9-2.8,1.3-4.4,1.3c-2.2,0-4-0.8-5.3-2.3c-1.3-1.5-2-3.6-2-6.3
		c0-2.6,0.7-4.7,2-6.3c1.4-1.5,3.2-2.3,5.5-2.3C169.2,70.4,170.7,70.8,171.9,71.6z"/>
</g>
</svg>
